<?xml version="1.0" encoding="UTF-8"?>
<!DOCTYPE svg PUBLIC "-//W3C//DTD SVG 1.1//EN" "http://www.w3.org/Graphics/SVG/1.1/DTD/svg11.dtd">
<!-- Creator: CorelDRAW 2020 (64-Bit) -->
<svg xmlns="http://www.w3.org/2000/svg" xml:space="preserve" width="0.692008in" height="0.692012in" version="1.1" style="shape-rendering:geometricPrecision; text-rendering:geometricPrecision; image-rendering:optimizeQuality; fill-rule:evenodd; clip-rule:evenodd"
viewBox="0 0 102.31 102.31"
 xmlns:xlink="http://www.w3.org/1999/xlink"
 xmlns:xodm="http://www.corel.com/coreldraw/odm/2003">
 <defs>
  <style type="text/css">
   <![CDATA[
    .fil0 {fill:#FEFEFE}
   ]]>
  </style>
 </defs>
 <g id="Layer_x0020_1">
  <metadata id="CorelCorpID_0Corel-Layer"/>
  <path class="fil0" d="M73.93 0.66l-2.64 0 0 0.66 -1.32 0 0 0.66 -1.32 0 0 0.66 -1.32 0 0 0.66 -1.32 0 0 0.66 -0.66 0 0 0.66 -1.32 0 0 0.66 -0.66 0 0 0.66 -0.66 0 0 0.66 -0.66 0 0 0.66 -0.66 0 0 0.66 -0.66 0 0 0.66 -0.66 0 0 0.66 -0.66 0 0 0.66 -0.66 0 0 0.66 -0.66 0 0 0.66 -0.66 0 0 0.66 -0.66 0 0 0.66 -0.66 0 0 0.66 -0.66 0 0 0.66 -0.66 0 0 0.66 -0.66 0 0 0.66 -0.66 0 0 0.66 -0.66 0 0 0.66 -0.66 0 0 0.66 -0.66 0 0 0.66 -0.66 0 0 0.66 -0.66 0 0 0.66 -0.66 0 0 0.66 -0.66 0 0 0.66 -0.66 0 0 0.66 -0.66 0 0 0.66 -0.66 0 0 0.66 -0.66 0 0 0.66 3.3 0 0 0.66 2.64 0 0 0.66 1.98 0 0 0.66 1.98 0 0 0.66 1.32 0 0 0.66 1.32 0 0 -0.66 0.66 0 0 -0.66 0.66 0 0 -0.66 0.66 0 0 -0.66 0.66 0 0 -1.32 1.32 0 0 -1.32 0.66 0 0 -0.66 0.66 0 0 -0.66 0.66 0 0 -0.66 0.66 0 0 -0.66 0.66 0 0 -0.66 0.66 0 0 -0.66 0.66 0 0 -0.66 0.66 0 0 -0.66 0.66 0 0 -0.66 0.66 0 0 -0.66 1.32 0 0 -0.66 0.66 0 0 -0.66 0.66 0 0 -0.66 1.32 0 0 -0.66 1.98 0 0 -0.66 7.26 0 0 0.66 1.98 0 0 0.66 0.66 0 0 0.66 1.32 0 0 0.66 0.66 0 0 0.66 0.66 0 0 0.66 0.66 0 0 0.66 0.66 0 0 1.32 0.66 0 0 1.32 0.66 0 0 1.98 0.66 0 0 5.94 -0.66 0 0 1.98 -0.66 0 0 1.32 -0.66 0 0 0.66 -0.66 0 0 1.32 -0.66 0 0 0.66 -0.66 0 0 0.66 -0.66 0 0 0.66 -0.66 0 0 0.66 -0.66 0 0 0.66 -0.66 0 0 0.66 -0.66 0 0 0.66 -0.66 0 0 0.66 -0.66 0 0 0.66 -0.66 0 0 0.66 -0.66 0 0 0.66 -0.66 0 0 0.66 -0.66 0 0 0.66 -0.66 0 0 0.66 -0.66 0 0 0.66 -0.66 0 0 0.66 -0.66 0 0 0.66 -0.66 0 0 0.66 -0.66 0 0 0.66 -0.66 0 0 0.66 -0.66 0 0 0.66 -0.66 0 0 0.66 -0.66 0 0 0.66 -0.66 0 0 0.66 -0.66 0 0 0.66 -0.66 0 0 0.66 -0.66 0 0 0.66 -0.66 0 0 0.66 -0.66 0 0 0.66 -0.66 0 0 0.66 -0.66 0 0 0.66 -0.66 0 0 0.66 -0.66 0 0 0.66 -0.66 0 0 0.66 -0.66 0 0 0.66 -1.32 0 0 0.66 -0.66 0 0 0.66 -1.32 0 0 0.66 -1.32 0 0 0.66 -7.92 0 0 -0.66 -1.98 0 0 -0.66 -1.32 0 0 -0.66 -1.32 0 0 -0.66 -0.66 0 0 -0.66 -1.32 0 0 -0.66 -1.32 0 0 -0.66 -3.3 0 0 0.66 -0.66 0 0 0.66 -0.66 0 0 0.66 -0.66 0 0 0.66 -0.66 0 0 0.66 -0.66 0 0 0.66 -0.66 0 0 0.66 -0.66 0 0 1.32 0.66 0 0 0.66 0.66 0 0 1.32 0.66 0 0 0.66 0.66 0 0 0.66 0.66 0 0 0.66 0.66 0 0 0.66 0.66 0 0 0.66 0.66 0 0 0.66 1.32 0 0 0.66 0.66 0 0 0.66 1.32 0 0 0.66 1.32 0 0 0.66 1.98 0 0 0.66 1.98 0 0 0.66 11.22 0 0 -0.66 1.98 0 0 -0.66 1.98 0 0 -0.66 1.32 0 0 -0.66 1.32 0 0 -0.66 0.66 0 0 -0.66 1.32 0 0 -0.66 0.66 0 0 -0.66 0.66 0 0 -0.66 1.32 0 0 -0.66 0.66 0 0 -0.66 0.66 0 0 -0.66 0.66 0 0 -0.66 0.66 0 0 -0.66 0.66 0 0 -0.66 0.66 0 0 -0.66 0.66 0 0 -0.66 0.66 0 0 -0.66 0.66 0 0 -0.66 0.66 0 0 -0.66 0.66 0 0 -0.66 0.66 0 0 -0.66 0.66 0 0 -0.66 0.66 0 0 -0.66 0.66 0 0 -0.66 0.66 0 0 -0.66 0.66 0 0 -0.66 0.66 0 0 -0.66 0.66 0 0 -0.66 0.66 0 0 -0.66 0.66 0 0 -0.66 0.66 0 0 -0.66 0.66 0 0 -0.66 0.66 0 0 -0.66 0.66 0 0 -0.66 0.66 0 0 -0.66 0.66 0 0 -0.66 0.66 0 0 -0.66 0.66 0 0 -0.66 0.66 0 0 -0.66 0.66 0 0 -0.66 0.66 0 0 -0.66 0.66 0 0 -1.32 0.66 0 0 -0.66 0.66 0 0 -0.66 0.66 0 0 -0.66 0.66 0 0 -0.66 0.66 0 0 -1.32 0.66 0 0 -1.32 0.66 0 0 -0.66 0.66 0 0 -1.98 0.66 0 0 -1.98 0.66 0 0 -3.3 0.66 0 0 -7.26 -0.66 0 0 -1.98 -0.66 0 0 -1.98 -0.66 0 0 -1.32 -0.66 0 0 -1.32 -0.66 0 0 -1.32 -0.66 0 0 -0.66 -0.66 0 0 -1.32 -0.66 0 0 -0.66 -0.66 0 0 -0.66 -0.66 0 0 -0.66 -0.66 0 0 -0.66 -0.66 0 0 -0.66 -0.66 0 0 -0.66 -0.66 0 0 -0.66 -1.32 0 0 -0.66 -0.66 0 0 -0.66 -1.32 0 0 -0.66 -0.66 0 0 -0.66 -1.98 0 0 -0.66 -1.32 0 0 -0.66 -1.98 0 0 -0.66 -9.9 0 0 0.66zm-26.4 86.47l0.66 0 0 -0.66 0.66 0 0 -0.66 0.66 0 0 -0.66 0.66 0 0 -0.66 0.66 0 0 -0.66 0.66 0 0 -0.66 0.66 0 0 -0.66 0.66 0 0 -0.66 0.66 0 0 -0.66 0.66 0 0 -0.66 0.66 0 0 -0.66 -2.64 0 0 -0.66 -3.3 0 0 -0.66 -1.98 0 0 -0.66 -1.32 0 0 -0.66 -0.66 0 -0.66 0 0 -0.66 -1.32 0 0 0.66 -0.66 0 0 0.66 -0.66 0 0 0.66 -0.66 0 0 0.66 -0.66 0 0 0.66 -0.66 0 0 0.66 -0.66 0 0 0.66 -0.66 0 0 0.66 -0.66 0 0 0.66 -0.66 0 0 0.66 -0.66 0 0 0.66 -0.66 0 0 0.66 -0.66 0 0 0.66 -0.66 0 0 0.66 -0.66 0 0 0.66 -0.66 0 0 0.66 -0.66 0 0 0.66 -0.66 0 0 0.66 -0.66 0 0 0.66 -1.32 0 0 0.66 -1.32 0 0 0.66 -1.32 0 0 0.66 -7.92 0 0 -0.66 -1.32 0 0 -0.66 -1.32 0 0 -0.66 -0.66 0 0 -0.66 -1.32 0 0 -0.66 -0.66 0 0 -0.66 -0.66 0 0 -1.32 -0.66 0 0 -0.66 -0.66 0 0 -1.32 -0.66 0 0 -1.98 -0.66 0 0 -6.6 0.66 0 0 -1.32 0.66 0 0 -1.32 0.66 0 0 -1.32 0.66 0 0 -0.66 0.66 0 0 -0.66 0.66 0 0 -0.66 0.66 0 0 -0.66 0.66 0 0 -0.66 0.66 0 0 -0.66 0.66 0 0 -0.66 0.66 0 0 -0.66 0.66 0 0 -0.66 0.66 0 0 -0.66 0.66 0 0 -0.66 0.66 0 0 -0.66 0.66 0 0 -0.66 0.66 0 0 -0.66 0.66 0 0 -0.66 0.66 0 0 -0.66 0.66 0 0 -0.66 0.66 0 0 -0.66 0.66 0 0 -0.66 0.66 0 0 -0.66 0.66 0 0 -0.66 0.66 0 0 -0.66 0.66 0 0 -0.66 0.66 0 0 -0.66 0.66 0 0 -0.66 0.66 0 0 -0.66 0.66 0 0 -0.66 0.66 0 0 -0.66 0.66 0 0 -0.66 0.66 0 0 -0.66 0.66 0 0 -0.66 0.66 0 0 -0.66 0.66 0 0 -0.66 0.66 0 0 -0.66 0.66 0 0 -0.66 0.66 0 0 -0.66 1.32 0 0 -0.66 1.32 0 0 -0.66 1.32 0 0 -0.66 7.92 0 0 0.66 1.32 0 0 0.66 1.32 0 0 0.66 1.32 0 0 0.66 1.32 0 0 0.66 0.66 0 0 0.66 4.62 0 0 -0.66 0.66 0 0 -0.66 0.66 0 0 -0.66 0.66 0 0 -0.66 0.66 0 0 -0.66 0.66 0 0 -0.66 0.66 0 0 -0.66 0.66 0 0 -0.66 -0.66 0 0 -1.32 -0.66 0 0 -0.66 -0.66 0 0 -0.66 -0.66 0 0 -0.66 -0.66 0 0 -0.66 -0.66 0 0 -0.66 -0.66 0 0 -0.66 -0.66 0 0 -0.66 -1.32 0 0 -0.66 -0.66 0 0 -0.66 -1.32 0 0 -0.66 -1.32 0 0 -0.66 -1.98 0 0 -0.66 -1.98 0 0 -0.66 -10.56 0 0 0.66 -2.64 0 0 0.66 -1.32 0 0 0.66 -1.32 0 0 0.66 -1.32 0 0 0.66 -1.32 0 0 0.66 -0.66 0 0 0.66 -1.32 0 0 0.66 -0.66 0 0 0.66 -0.66 0 0 0.66 -0.66 0 0 0.66 -0.66 0 0 0.66 -0.66 0 0 0.66 -0.66 0 0 0.66 -0.66 0 0 0.66 -0.66 0 0 0.66 -0.66 0 0 0.66 -0.66 0 0 0.66 -0.66 0 0 0.66 -0.66 0 0 0.66 -0.66 0 0 0.66 -0.66 0 0 0.66 -0.66 0 0 0.66 -0.66 0 0 0.66 -0.66 0 0 0.66 -0.66 0 0 0.66 -0.66 0 0 0.66 -0.66 0 0 0.66 -0.66 0 0 0.66 -0.66 0 0 0.66 -0.66 0 0 0.66 -0.66 0 0 0.66 -0.66 0 0 0.66 -0.66 0 0 0.66 -0.66 0 0 0.66 -0.66 0 0 0.66 -0.66 0 0 0.66 -0.66 0 0 0.66 -0.66 0 0 0.66 -0.66 0 0 0.66 -0.66 0 0 0.66 -0.66 0 0 0.66 -0.66 0 0 0.66 -0.66 0 0 1.32 -0.66 0 0 0.66 -0.66 0 0 0.66 -0.66 0 0 1.32 -0.66 0 0 1.32 -0.66 0 0 1.32 -0.66 0 0 1.32 -0.66 0 0 2.64 -0.66 0 0 11.22 0.66 0 0 1.98 0.66 0 0 1.32 0.66 0 0 1.98 0.66 0 0 0.66 0.66 0 0 1.32 0.66 0 0 0.66 0.66 0 0 1.32 0.66 0 0 0.66 0.66 0 0 0.66 0.66 0 0 0.66 0.66 0 0 0.66 0.66 0 0 0.66 0.66 0 0 0.66 1.32 0 0 0.66 0.66 0 0 0.66 1.32 0 0 0.66 1.32 0 0 0.66 1.32 0 0 0.66 1.32 0 0 0.66 1.98 0 0 0.66 9.9 0 0 -0.66 2.64 0 0 -0.66 1.32 0 0 -0.66 1.98 0 0 -0.66 0.66 0 0 -0.66 1.32 0 0 -0.66 1.32 0 0 -0.66 0.66 0 0 -0.66 0.66 0 0 -0.66 0.66 0 0 -0.66 1.32 0 0 -0.66 0.66 0 0 -0.66 0.66 0 0 -0.66 0.66 0 0 -0.66 0.66 0 0 -1.32 1.32 0 0 -1.32 0.66 0 0 -0.66 0.66 0 0 -0.66 0.66 0 0 -0.66 0.66 0 0 -0.66 0.66 0 0 -0.66z"/>
 </g>
</svg>
