<?xml version="1.0" encoding="UTF-8"?>
<!DOCTYPE svg PUBLIC "-//W3C//DTD SVG 1.1//EN" "http://www.w3.org/Graphics/SVG/1.1/DTD/svg11.dtd">
<!-- Creator: CorelDRAW 2020 (64-Bit) -->
<svg xmlns="http://www.w3.org/2000/svg" xml:space="preserve" width="4.08616in" height="1.09037in" version="1.1" style="shape-rendering:geometricPrecision; text-rendering:geometricPrecision; image-rendering:optimizeQuality; fill-rule:evenodd; clip-rule:evenodd"
viewBox="0 0 5576.74 1488.12"
 xmlns:xlink="http://www.w3.org/1999/xlink"
 xmlns:xodm="http://www.corel.com/coreldraw/odm/2003">
 <defs>
  <style type="text/css">
   <![CDATA[
    .fil1 {fill:#F9F9FF;fill-rule:nonzero}
    .fil0 {fill:url(#id0)}
   ]]>
  </style>
  <linearGradient id="id0" gradientUnits="userSpaceOnUse" x1="747.07" y1="-0.09" x2="740.24" y2="1487.01">
   <stop offset="0" style="stop-opacity:1; stop-color:#5B3AE8"/>
   <stop offset="0.678431" style="stop-opacity:1; stop-color:#3198F3"/>
   <stop offset="1" style="stop-opacity:1; stop-color:#06F6FF"/>
  </linearGradient>
 </defs>
 <g id="Layer_x0020_1">
  <metadata id="CorelCorpID_0Corel-Layer"/>
  <path class="fil0" d="M343.08 0l801.95 0c188.69,0 343.08,154.41 343.08,343.08l0 141.47 0 99.18c0,40.85 -33.5,74.37 -74.37,74.37l-48.81 0c-40.87,0 -74.37,-33.47 -74.37,-74.37 0,-35.61 0.27,-98.74 0.27,-134.33 0,-138.67 -113.49,-252.12 -252.12,-252.12l-589.33 0c-138.67,0 -252.12,113.46 -252.12,252.12l0 589.33c0,138.67 113.46,252.11 252.12,252.11l589.33 0c138.67,0 252.12,-113.46 252.12,-252.11 0,-50.31 -0.27,-114.42 -0.27,-164.76 0,-40.9 33.46,-74.37 74.37,-74.37l48.81 0c40.91,0 74.37,33.51 74.37,74.37l0 126.73 0 144.33c0,188.66 -154.41,343.08 -343.08,343.08l-801.95 0c-188.69,0 -343.08,-154.38 -343.08,-343.08l0 -801.95c0,-188.69 154.38,-343.08 343.08,-343.08zm138.48 842.68l524.98 0c34.89,0 63.45,28.55 63.45,63.45l0 40.37c0,34.89 -28.55,63.45 -63.45,63.45l-524.98 0c-34.89,0 -63.44,-28.55 -63.44,-63.45l0 -40.37c0,-34.89 28.55,-63.45 63.44,-63.45zm0 -383.82l524.98 0c34.89,0 63.45,28.55 63.45,63.45l0 40.37c0,34.89 -28.55,63.45 -63.45,63.45l-524.98 0c-34.89,0 -63.44,-28.55 -63.44,-63.45l0 -40.37c0,-34.89 28.55,-63.45 63.44,-63.45z"/>
  <path class="fil1" d="M2097.15 696.79l61.36 0c40.91,0 61.37,-18.8 61.37,-56.4 0,-37.59 -20.46,-56.38 -61.37,-56.38l-61.36 0 0 112.78zm-134.35 -165.02c0,-21.57 6.49,-38.28 19.49,-50.17 13,-11.89 28.88,-17.82 47.69,-17.82l158.39 0c50.86,0 91.22,14.38 121.07,43.13 29.85,28.75 44.77,66.33 44.77,112.78 0,27.09 -8.01,51.42 -24.04,72.97 -12.16,16.03 -27.65,29.58 -46.45,40.64 35.94,7.19 64.68,24.06 86.24,50.58 21.57,26.54 32.34,58.61 32.34,96.2 0,51.42 -16.03,93.15 -48.1,125.23 -36.48,36.49 -89.01,54.73 -157.55,54.73l-166.68 0c-18.25,0 -34.01,-6.08 -47.28,-18.25 -13.27,-12.16 -19.9,-28.76 -19.9,-49.75l0 -460.24 0.01 -0.01zm134.35 407.99l84.58 0c24.88,0 43.96,-4.43 57.21,-13.27 16.03,-10.51 24.06,-26.54 24.06,-48.1 0,-20.46 -8.02,-35.8 -24.06,-46.02 -16.03,-10.23 -35.11,-15.34 -57.21,-15.34l-84.58 0 0 122.73zm356.57 -456.92c0,-19.35 5.95,-35.52 17.84,-48.51 11.89,-13 27.5,-19.49 46.85,-19.49 18.8,0 34.28,6.63 46.43,19.9 12.16,13.27 18.25,29.31 18.25,48.1l0 514.15c0,19.35 -5.95,35.52 -17.84,48.51 -11.89,13 -27.5,19.49 -46.85,19.49 -18.81,0 -34.28,-6.36 -46.45,-19.08 -12.16,-12.71 -18.25,-29.02 -18.25,-48.92l0 -514.15 0.02 -0.01zm607.03 354.1c0,66.89 -20.19,123.01 -60.53,168.34 -40.36,45.34 -92.88,68 -157.57,68 -64.68,0 -117.21,-22.52 -157.55,-67.59 -40.36,-45.05 -60.53,-101.31 -60.53,-168.76 0,-66.89 20.19,-122.86 60.53,-167.93 40.36,-45.05 92.88,-67.59 157.55,-67.59 64.69,0 117.21,22.39 157.57,67.16 40.36,44.77 60.53,100.9 60.53,168.34l0 0.03zm-306.84 0c0,32.07 7.87,58.59 23.63,79.6 15.76,21.01 37.45,31.52 65.1,31.52 27.65,0 49.34,-10.65 65.1,-31.93 15.76,-21.28 23.63,-47.69 23.63,-79.2 0,-31.52 -7.46,-57.21 -22.39,-77.12 -16.58,-22.12 -38.69,-33.17 -66.34,-33.17 -27.64,0 -49.34,10.51 -65.1,31.52 -15.76,21.01 -23.63,47.26 -23.63,78.78l0 -0.01zm554.78 -235.52c38.69,0 71.32,5.53 97.85,16.58 37.04,15.49 55.56,38.71 55.56,69.67 0,17.69 -5.11,32.2 -15.34,43.53 -10.23,11.33 -22.81,17 -37.74,17 -9.4,0 -22.66,-3.59 -39.8,-10.78 -17.14,-7.19 -34.83,-10.78 -53.07,-10.78 -30.96,0 -54.73,10.51 -71.32,31.52 -16.59,21.01 -24.88,47.26 -24.88,78.78 0,32.07 7.87,58.59 23.63,79.6 15.76,21.01 37.45,31.52 65.1,31.52 18.8,0 36.07,-2.49 51.83,-7.46 15.76,-4.98 31.93,-10.23 48.51,-15.76 14.38,0 26.82,6.08 37.31,18.25 10.51,12.16 15.76,25.44 15.76,39.8 0,29.31 -19.08,52.51 -57.21,69.65 -30.96,13.82 -63.02,20.74 -96.2,20.74 -64.68,0 -117.21,-22.52 -157.57,-67.59 -40.36,-45.05 -60.53,-101.31 -60.53,-168.76 0,-66.89 20.18,-122.86 60.53,-167.93 40.36,-45.05 92.88,-67.59 157.57,-67.59l-0.01 0.02zm213.11 -118.59c0,-19.35 5.95,-35.52 17.84,-48.51 11.89,-13 27.5,-19.49 46.85,-19.49 18.8,0 34.28,6.63 46.43,19.9 12.16,13.27 18.25,29.31 18.25,48.1l0 277.8 105.31 -106.15c16.03,-16.03 27.09,-26.26 33.17,-30.69 12.71,-9.4 25.98,-14.1 39.8,-14.1 18.8,0 33.99,5.81 45.61,17.41 11.62,11.62 17.41,25.71 17.41,42.29 0,13.27 -5.81,26.54 -17.41,39.8 -3.32,3.87 -12.71,13.55 -28.2,29.03l-69.65 69.65 108.63 139.32c8.84,11.06 15.49,20.19 19.9,27.37 7.19,11.62 10.78,21.57 10.78,29.86 0,14.93 -4.98,28.2 -14.93,39.8 -12.16,13.82 -28.47,20.74 -48.93,20.74 -15.49,0 -27.64,-2.76 -36.49,-8.3 -8.84,-5.53 -20.18,-17.41 -33.99,-35.66l-129.37 -171.66 -1.65 147.62c0,19.35 -5.95,35.52 -17.84,48.51 -11.89,13 -27.5,19.49 -46.85,19.49 -18.81,0 -34.28,-6.36 -46.45,-19.08 -12.16,-12.71 -18.25,-29.02 -18.25,-48.92l0 -514.15 0.02 0.01zm704.88 -32.34c48.64,0 88.45,6.63 119.42,19.9 39.26,16.59 58.88,41.47 58.88,74.63 0,17.14 -5.4,32.2 -16.17,45.2 -10.78,13 -24.74,19.49 -41.88,19.49 -5.53,0 -27.09,-6.36 -64.68,-19.08 -19.9,-6.63 -37.31,-9.95 -52.24,-9.95 -50.86,0 -89.55,18.52 -116.1,55.56 -23.77,33.17 -35.66,74.9 -35.66,125.21 0,50.31 12.3,92.33 36.9,126.05 24.6,33.73 59.02,50.58 103.23,50.58 27.65,0 51.28,-3.05 70.91,-9.13 19.63,-6.08 39.94,-12.44 60.96,-19.08 23.22,0 39.8,8.3 49.75,24.88 6.63,11.06 9.95,23.78 9.95,38.15 0,33.72 -21.57,59.7 -64.69,77.95 -35.37,14.93 -75.73,22.39 -121.07,22.39 -90.11,0 -161.71,-30.41 -214.78,-91.22 -50.31,-57.5 -75.46,-131.02 -75.46,-220.59 0,-91.22 26.82,-165.85 80.44,-223.89 53.62,-58.05 124.39,-87.07 212.29,-87.07l-0.01 0.03zm641.02 546.49c0,19.35 -5.95,35.52 -17.84,48.51 -11.89,13 -27.5,19.49 -46.85,19.49 -13.82,0 -26.12,-4.14 -36.9,-12.44 -10.78,-8.3 -18.66,-17.97 -23.63,-29.03 -27.09,33.17 -64.13,49.75 -111.12,49.75 -55.83,0 -103.11,-22.95 -141.81,-68.82 -38.69,-45.88 -58.05,-101.72 -58.05,-167.51 0,-65.78 19.22,-121.48 57.64,-167.11 38.42,-45.61 85.82,-68.41 142.22,-68.41 25.44,0 46.58,3.59 63.45,10.78 16.87,7.19 32.75,20.19 47.69,38.98 5.53,-11.62 12.71,-21.01 21.57,-28.2 11.06,-8.84 24.04,-13.27 38.97,-13.27 18.81,0 34.28,6.36 46.45,19.08 12.16,12.71 18.25,28.75 18.25,48.1l0 320.11 -0.01 -0.01zm-306.84 -160.05c0,32.07 7.87,58.59 23.63,79.6 15.76,21.01 37.45,31.52 65.1,31.52 27.65,0 49.34,-10.65 65.1,-31.93 15.76,-21.28 23.63,-47.69 23.63,-79.2 0,-31.52 -7.46,-57.21 -22.39,-77.12 -16.58,-22.12 -38.69,-33.17 -66.34,-33.17 -27.64,0 -49.34,10.51 -65.1,31.52 -15.76,21.01 -23.63,47.26 -23.63,78.78l0 -0.01zm387.27 82.92c8.84,0 32.63,8.57 71.32,25.71 18.81,8.3 36.49,12.44 53.07,12.44 12.71,0 21.98,-2.35 27.77,-7.05 5.81,-4.7 8.7,-11.19 8.7,-19.49 0,-9.4 -4.14,-16.87 -12.44,-22.39 -28.75,-12.16 -58.05,-24.33 -87.9,-36.49 -36.49,-15.49 -61.64,-30.69 -75.46,-45.61 -17.69,-18.8 -26.53,-44.77 -26.53,-77.95 0,-39.8 14.65,-73.8 43.94,-102 31.52,-30.41 72.43,-45.61 122.74,-45.61 33.17,0 64.4,6.92 93.71,20.74 37.04,17.7 55.56,41.74 55.56,72.14 0,16.59 -4.98,29.85 -14.93,39.8 -9.95,9.95 -22.95,14.93 -38.97,14.93 -4.98,0 -24.88,-7.19 -59.72,-21.56 -17.69,-7.19 -32.34,-10.78 -43.94,-10.78 -9.95,0 -18.11,2.21 -24.46,6.63 -6.36,4.43 -9.54,11.33 -9.54,20.74 0,12.16 17.41,24.88 52.24,38.15 48.1,18.25 80.44,33.17 97.03,44.77 35.39,24.88 53.07,58.05 53.07,99.52 0,44.23 -16.17,79.75 -48.51,106.56 -32.34,26.82 -71.46,40.21 -117.34,40.21 -44.77,0 -83.76,-7.74 -116.93,-23.22 -37.04,-17.14 -55.56,-39.53 -55.56,-67.16 0,-17.7 5.25,-32.63 15.76,-44.77 10.51,-12.16 22.95,-18.25 37.31,-18.25l0 0.03zm395.57 -184.93l-14.93 0c-21.57,0 -38.28,-4.84 -50.17,-14.51 -11.89,-9.68 -17.82,-25.01 -17.82,-46.02 0,-20.46 5.81,-35.52 17.41,-45.2 11.62,-9.68 28.47,-14.51 50.58,-14.51l14.93 0 0 -85.41c0,-19.35 5.95,-35.52 17.82,-48.51 11.89,-13 27.5,-19.49 46.85,-19.49 18.8,0 34.28,6.36 46.43,19.08 12.16,12.71 18.25,29.03 18.25,48.93l0 85.41 35.66 0c21.57,0 38.28,4.84 50.17,14.51 11.89,9.68 17.84,24.74 17.84,45.2 0,20.46 -6.08,35.66 -18.25,45.61 -12.16,9.95 -28.75,14.93 -49.75,14.93l-35.66 0 0 262.04c0,19.35 -5.95,35.52 -17.82,48.51 -11.89,13 -27.5,19.49 -46.85,19.49 -18.81,0 -34.28,-6.36 -46.45,-19.08 -12.16,-12.71 -18.25,-29.02 -18.25,-48.92l0 -262.04 0 -0.02z"/>
 </g>
</svg>
